<svg width="20" height="18" viewBox="0 0 20 18" fill="none" xmlns="http://www.w3.org/2000/svg">
<path d="M2 6.60872V15.4204H18V6.60872L10 9.91308L2 6.60872ZM2 2.20291V4.40582L10 7.71018L18 4.40582V2.20291H2ZM2 0H18C18.5304 0 19.0391 0.232091 19.4142 0.645217C19.7893 1.05834 20 1.61866 20 2.20291V15.4204C20 16.0046 19.7893 16.5649 19.4142 16.978C19.0391 17.3912 18.5304 17.6233 18 17.6233H2C1.46957 17.6233 0.960859 17.3912 0.585786 16.978C0.210714 16.5649 0 16.0046 0 15.4204V2.20291C0 1.61866 0.210714 1.05834 0.585786 0.645217C0.960859 0.232091 1.46957 0 2 0Z" fill="#C8B79D"/>
</svg>
