<svg width="20" height="20" viewBox="0 0 20 20" fill="none" xmlns="http://www.w3.org/2000/svg">
<path d="M10 0C15.523 0 20 4.477 20 10C20 15.523 15.523 20 10 20C8.29798 20.0024 6.62372 19.5686 5.13701 18.74L4.83201 18.562L1.80001 19.454C1.63501 19.5026 1.46033 19.5083 1.29252 19.4705C1.12472 19.4327 0.969349 19.3526 0.841145 19.238C0.712942 19.1233 0.616152 18.9778 0.559951 18.8152C0.503751 18.6526 0.490002 18.4784 0.520008 18.309L0.546008 18.2L1.43801 15.168C0.495062 13.6093 -0.00231244 11.8218 8.08285e-06 10C8.08285e-06 4.477 4.47701 0 10 0ZM10 2C8.56764 1.99974 7.16146 2.38406 5.92834 3.11281C4.69521 3.84157 3.68036 4.88804 2.98977 6.14294C2.29918 7.39784 1.95817 8.81514 2.00237 10.2468C2.04656 11.6785 2.47433 13.0721 3.24101 14.282C3.43901 14.594 3.52401 14.978 3.45701 15.359L3.41801 15.522L2.97701 17.023L4.47801 16.582C4.91101 16.454 5.36101 16.532 5.71801 16.759C6.76634 17.4228 7.9547 17.8336 9.18915 17.959C10.4236 18.0844 11.6703 17.921 12.8307 17.4816C13.9911 17.0422 15.0334 16.3389 15.8752 15.4273C16.717 14.5157 17.3352 13.4208 17.6809 12.2291C18.0266 11.0374 18.0904 9.78168 17.8673 8.56111C17.6441 7.34053 17.14 6.1886 16.395 5.19638C15.65 4.20415 14.6843 3.39883 13.5744 2.84408C12.4645 2.28933 11.2408 2.00036 10 2ZM7.10201 5.184C7.21283 5.13654 7.33403 5.11851 7.45386 5.13165C7.57369 5.14479 7.68811 5.18866 7.78601 5.259C8.29001 5.627 8.69001 6.121 9.03401 6.603L9.36101 7.077L9.51401 7.302C9.60261 7.43096 9.64614 7.58557 9.63782 7.74182C9.6295 7.89806 9.5698 8.04718 9.46801 8.166L9.39301 8.242L8.46901 8.928C8.42504 8.9606 8.39414 9.00781 8.38186 9.06115C8.36958 9.11449 8.37672 9.17046 8.40201 9.219C8.61201 9.599 8.98301 10.166 9.40901 10.592C9.83601 11.018 10.429 11.414 10.835 11.647C10.923 11.697 11.029 11.681 11.101 11.616L11.139 11.571L11.74 10.656C11.8502 10.5088 12.0131 10.4101 12.1946 10.3806C12.3761 10.3512 12.5619 10.3932 12.713 10.498L13.256 10.877C13.796 11.262 14.315 11.676 14.726 12.201C14.8021 12.2997 14.8504 12.4168 14.866 12.5404C14.8817 12.664 14.8641 12.7895 14.815 12.904C14.419 13.828 13.416 14.615 12.374 14.577L12.215 14.567L12.024 14.549L11.916 14.535L11.678 14.495C10.754 14.321 9.27301 13.797 7.73801 12.263C6.20401 10.728 5.68001 9.247 5.50601 8.323L5.46601 8.085L5.44101 7.877L5.42801 7.702L5.42401 7.627C5.38601 6.583 6.17701 5.58 7.10201 5.184Z" fill="#C8B79D"/>
</svg>
